<?xml version="1.0" encoding="utf-8"?>
<!-- Generator: Adobe Illustrator 19.0.0, SVG Export Plug-In . SVG Version: 6.00 Build 0)  -->
<svg version="1.1" id="Capa_1" xmlns="http://www.w3.org/2000/svg" xmlns:xlink="http://www.w3.org/1999/xlink" x="0px" y="0px"
	 viewBox="0 0 292.1 82.6" style="enable-background:new 0 0 292.1 82.6;" xml:space="preserve">
<style type="text/css">
	.st0{fill:#2F465D;}
	.st1{fill:#FAB858;}
</style>
<g id="XMLID_5_">
	<path id="XMLID_8_" class="st0" d="M41.2,57.8V29.5c-1.6,0.2-3.1,0.5-4.7,0.7C15,34.2,0,43.7,0,43.7l7.1,38.9
		c0,0,15.6-9.6,36.5-13.4c21.2-3.9,38.9-0.3,38.9-0.3l-2.8-15.1C56.2,55.6,41.2,57.8,41.2,57.8z"/>
	<path id="XMLID_6_" class="st0" d="M255.7,30.3c-1.6-0.3-3.2-0.5-4.7-0.7v28.2c0,0-14.9-2.2-38.5-4.1l-2.8,15.2
		c0,0,17.7-3.5,38.9,0.3C269.5,73,285,82.6,285,82.6l7.1-38.9C292.1,43.7,277.2,34.2,255.7,30.3z"/>
	<path id="XMLID_4_" class="st0" d="M248.9,55.8c0,0-45.1-8-102.8-8c-57.1,0-102.8,8-102.8,8V8c0,0,44.1-8,102.8-8
		c57.5,0,102.8,8,102.8,8V55.8z"/>
</g>
<g id="XMLID_10_">
	<g id="XMLID_14_">
		<path id="XMLID_53_" class="st1" d="M61.4,39.3c-0.4,0.4-0.9,0.6-1.4,0.6c-0.5,0.1-1,0-1.3-0.2c-0.3-0.2-0.5-0.4-0.5-0.6
			c0-0.3,0-0.6,0.1-0.7c0.2,0.1,0.5,0.2,0.8,0.1c0.5-0.1,0.9-0.4,1-1.1c-0.2-1.7-0.4-2.5-0.6-4.2c-0.1-0.4-0.2-0.7-0.4-0.8
			c-0.3-0.2-0.8-0.5-1.6-0.7c0.6-0.4,1-0.7,1.2-0.9c0.3-0.3,0.4-0.7,0.3-1.2c-0.2-1.5-0.3-2.2-0.5-3.7c-0.9,0.1-1.4,0.2-2.3,0.3
			c-0.1-0.1-0.2-0.3-0.2-0.7c-0.1-0.4,0-0.7,0.3-0.9c0.2-0.3,0.6-0.4,1-0.5c0.4-0.1,0.6-0.1,1-0.1c0-0.3-0.1-0.5-0.1-0.8
			c-0.3-2.1,0-4,1-5.6c1-1.7,2.6-2.6,4.7-2.9c2.2-0.3,3.8,0.2,4.8,1.4c0.3,0.4,0.5,0.8,0.6,1.2c0.1,0.4,0.3,0.7,0.4,0.8
			c0.2,0.1,0.4,0.2,0.6,0.3c-0.2,0.5-0.6,0.8-1.2,0.8c-0.1,0-0.3,0-0.4,0c-0.3,0.6-0.7,0.9-1.3,1c-1,0.1-1.5,0-1.6-0.3
			c0.4-0.1,0.5-0.3,0.5-0.7c0,0,0,0,0,0c-0.2,0.1-0.3,0.1-0.5,0.2c-0.2,0-0.4,0-0.5,0c-0.2,0-0.3-0.1-0.4-0.2
			c-0.3-0.2-0.4-0.4-0.5-0.8c0.9-0.1,1.4-0.3,1.7-0.7c0.1-0.1,0.1-0.3,0.1-0.5c0-0.2-0.2-0.4-0.5-0.6c-0.3-0.2-0.7-0.2-1.2-0.2
			c-0.5,0.1-0.8,0.2-1.1,0.3c-0.3,0.1-0.5,0.3-0.7,0.6c-0.4,0.6-0.5,1.4-0.3,2.6c0.1,0.5,0.2,1.1,0.4,1.8c0.2,0.8,0.4,1.3,0.4,1.5
			c1.7-0.2,2.6-0.3,4.3-0.5c0.1,0.1,0.2,0.4,0.2,0.7c0,0.3-0.1,0.6-0.3,0.9c-0.3,0.2-0.6,0.4-1,0.4c-1.2,0.1-1.8,0.2-2.9,0.4
			c0.2,1.5,0.3,2.2,0.5,3.7c0.1,0.4,0.2,0.7,0.4,0.9c0.3,0.2,0.8,0.5,1.5,0.7c-0.7,0.4-1.1,0.7-1.2,0.9c-0.2,0.3-0.3,0.7-0.3,1.1
			c0.2,1.7,0.3,2.5,0.5,4.2c0.4,0.6,0.9,0.9,1.6,0.8c0.4-0.1,0.7-0.2,0.9-0.4c0.2,0.2,0.2,0.3,0.3,0.5c0,0.2,0,0.4-0.1,0.5
			c-0.1,0.1-0.2,0.3-0.3,0.4C67,38.8,66.5,39,66,39.1c-0.6,0.1-1.1,0-1.7-0.3c-0.3,0.4-0.8,0.6-1.3,0.7
			C62.4,39.6,61.8,39.5,61.4,39.3z M60.4,30.5c0,0.3-0.3,0.5-0.9,0.8c0.6,0.1,1,0.3,1.1,0.6c0.2,0.4,0.4,1.4,0.6,3
			c0,0.4,0.1,0.5,0.1,0.9c0.4-0.3,0.6-1.2,0.5-2.4c-0.1-0.7-0.2-1.4-0.2-1.9c-0.1-0.6-0.1-0.9-0.2-1.4c-0.4-3.2-0.6-4.8-0.6-5
			c0-0.2,0-0.3,0-0.3c0,0,0-0.1,0-0.3c-0.4,0.2-0.6,0.5-0.7,0.9c-0.2,0.7-0.1,1.7,0,3C60.2,29.1,60.3,29.6,60.4,30.5z"/>
		<path id="XMLID_48_" class="st1" d="M80.2,35.8c-0.7,1.2-2,1.9-3.7,2.1c-2.1,0.2-3.7-0.2-4.9-1.3c-0.5-0.5-0.9-1-1.1-1.6
			c-0.1-0.4-0.3-0.7-0.6-0.8c-0.3-0.2-0.6-0.3-0.9-0.5c0.6-0.4,1.1-1,1.2-1.9c0.2-0.9,0.6-1.6,1.3-2.1c0.7-0.5,1.6-0.8,2.5-1
			c0.9-0.1,1.6-0.2,2.1-0.3c0.5-0.1,0.8-0.2,1.2-0.3c0.6-0.2,1.1-0.5,1.5-1c-0.1-0.8-0.1-1.2-0.2-2.1c-0.1-0.9-0.4-1.6-0.8-1.9
			c-0.4-0.4-1-0.5-1.8-0.4c-0.8,0.1-1.4,0.3-1.7,0.6c-0.3,0.3-0.5,0.7-0.4,1.2c0.1,0.7,0.5,1,1.3,0.9c-0.1,0.7-0.4,1.1-1.1,1.2
			c-0.2,0-0.4,0-0.6,0c0,0,0,0,0,0c0,0.2,0.2,0.4,0.4,0.4c-0.2,0.4-0.6,0.6-1.1,0.6c-0.6,0.1-1-0.2-1.4-0.7C71.2,27,71,27,70.8,27
			c-0.2,0-0.4,0-0.6-0.1c-0.2-0.1-0.4-0.2-0.6-0.4c0.4-0.3,0.7-0.8,0.7-1.4c0-0.7,0.5-1.5,1.5-2.4c1.2-1,2.8-1.7,4.8-1.9
			c3.3-0.4,5.4,0.4,6.4,2.3c0.3,0.6,0.5,1.4,0.6,2.3c0,0.4,0.1,0.7,0.1,1.1c0,0.5,0.2,0.8,0.5,1.1c0.3,0.3,0.7,0.5,1.3,0.6
			c-0.6,0.3-0.9,0.6-1.1,0.8c-0.2,0.3-0.3,0.7-0.3,1.1c0.2,1.7,0.2,2.5,0.4,4.2c0.3,0.7,0.8,1,1.3,0.9c0.3,0,0.6-0.1,0.8-0.3
			c0.1,0.2,0.2,0.4,0.3,0.6c0,0.3-0.1,0.5-0.3,0.8c-0.2,0.3-0.6,0.4-1.2,0.5c-0.5,0.1-1,0-1.5-0.3c-0.4,0.3-0.7,0.5-1,0.6
			c-0.3,0-0.6,0-0.8,0c-0.2,0-0.5-0.1-0.7-0.2C80.7,36.7,80.4,36.3,80.2,35.8z M73.8,36.3c0.1-0.1,0.1-0.2,0.1-0.3
			c0-0.1-0.1-0.3-0.3-0.6c-0.6-0.8-0.9-1.5-0.9-2c-0.1-0.5-0.1-0.9-0.1-1.2c0-0.2,0-0.5,0.1-0.6c0.1-0.2,0.1-0.3,0.2-0.5
			c0.1-0.1,0.1-0.3,0.2-0.4c0.1-0.2,0.1-0.4,0.1-0.5c0-0.1-0.1-0.1-0.2-0.2c-0.4,0.2-0.6,0.5-0.8,0.7c-0.3,0.5-0.4,1-0.5,1.7
			c0,0.2-0.3,0.5-0.9,0.8c0.6,0.2,1,0.4,1.1,0.6C72.4,35.1,73,35.8,73.8,36.3z M75.6,33c0,0.4,0.1,0.8,0.3,1.1
			c0.1,0.4,0.3,0.7,0.5,0.9c0.4,0.5,1,0.8,1.7,0.7c0.5-0.1,0.9-0.3,1.2-0.8c0.3-0.4,0.4-1,0.3-1.6c-0.2-1.8-0.3-2.7-0.5-4.5
			c-0.6,0.4-1.3,0.7-2.3,1C75.8,30,75.3,31.1,75.6,33z M80.9,33.4c0.5-0.3,0.7-1.3,0.5-3.1c0-0.4-0.1-0.8-0.1-1.3
			c-0.1-0.5-0.1-0.9-0.1-1.3c0-0.4-0.1-0.7-0.1-1c-0.2-1.2-0.3-1.8-0.5-2c-0.2-0.2-0.4-0.3-0.6-0.4C80.3,27.8,80.5,29.7,80.9,33.4z"
			/>
		<path id="XMLID_43_" class="st1" d="M91.3,35.9c-0.4,0.3-0.9,0.5-1.4,0.6c-0.6,0-1,0-1.2-0.3c-0.3-0.2-0.4-0.5-0.4-0.7
			c0-0.3,0-0.5,0.1-0.7c0.2,0.1,0.5,0.2,0.8,0.2c0.6-0.1,1-0.4,1.1-1c-0.2-1.7-0.2-2.6-0.4-4.3c0-0.4-0.2-0.7-0.3-0.9
			c-0.3-0.3-0.8-0.5-1.6-0.8c0.6-0.4,1-0.6,1.2-0.8c0.3-0.3,0.4-0.7,0.4-1.2c-0.1-0.8-0.1-1.2-0.2-2c-0.1-0.8-0.4-1.2-0.9-1.2
			c-0.2,0-0.4,0-0.6,0c-0.2,0-0.5,0.1-0.7,0.3c-0.2-0.2-0.2-0.3-0.3-0.5c0-0.2,0-0.4,0.1-0.7c0.1-0.2,0.2-0.5,0.4-0.7
			c0.5-0.5,1-0.8,1.7-0.9s1.2,0,1.7,0.2c0.5-0.6,1-1,1.6-1c1-0.1,1.5,0.4,1.6,1.4c0,0.5,0,0.7,0.1,1.2c0.7-1.3,1.8-2.2,3.2-2.7
			c0.5-0.2,0.9-0.3,1.4-0.3c1.1-0.1,2.1,0.1,2.9,0.6c0.8,0.5,1.4,1.2,1.8,2.1c0.6-1.5,1.7-2.5,3.3-3c0.5-0.2,1.1-0.3,1.8-0.3
			s1.3,0,1.9,0.3c0.6,0.2,1.1,0.5,1.6,1c0.9,0.9,1.4,2.2,1.5,3.9c0,0.4,0,0.6,0,0.9c0,0.4,0.1,0.8,0.3,0.9c0.3,0.3,0.8,0.5,1.5,0.8
			c-0.7,0.4-1.1,0.7-1.3,0.9c-0.3,0.3-0.4,0.7-0.3,1.1c0.1,1.7,0.1,2.6,0.2,4.3c0.2,0.6,0.6,0.8,1.2,0.8c0.2,0,0.4-0.1,0.6-0.3
			c0.1,0.1,0.1,0.1,0.2,0.2c0.1,0.1,0.1,0.2,0.1,0.4c0,0.2-0.1,0.5-0.3,0.7c-0.2,0.3-0.6,0.4-1.2,0.4s-1-0.1-1.5-0.4
			c-0.4,0.3-0.9,0.5-1.4,0.5s-1-0.1-1.4-0.3c-0.3,0.3-0.8,0.5-1.2,0.5c-0.5,0-0.8-0.1-1.1-0.3c-0.3-0.2-0.4-0.5-0.5-1
			c0-0.2,0-0.4,0.2-0.5c0.2,0.2,0.4,0.2,0.7,0.2c0.4,0,0.7-0.3,0.8-0.7c-0.2-3.3-0.3-5-0.5-8.3c-0.1-2.2-1-3.2-2.7-3.1
			c-0.5,0-0.9,0.3-1.3,0.9c-0.4,0.5-0.7,1.2-0.7,1.9c0.2,3.5,0.3,5.3,0.5,8.9c0.2,0.4,0.5,0.6,0.9,0.6c0.2,0,0.4-0.1,0.6-0.3
			c0.1,0.1,0.2,0.3,0.3,0.6c0,0.3-0.1,0.6-0.4,0.9c-0.3,0.2-0.6,0.4-1.1,0.4c-0.5,0-0.9-0.1-1.3-0.3c-0.4,0.3-0.8,0.5-1.3,0.5
			c-0.5,0-1-0.1-1.4-0.3c-0.3,0.3-0.7,0.5-1.2,0.5c-0.5,0-0.8-0.1-1.1-0.3c-0.3-0.2-0.5-0.5-0.5-1c0-0.2,0-0.4,0.2-0.5
			c0.2,0.1,0.5,0.2,0.7,0.2c0.4,0,0.7-0.3,0.8-0.7c-0.2-3.3-0.4-5-0.6-8.3c-0.1-1.7-0.6-2.7-1.5-3C97.2,22,96.9,22,96.5,22
			c-0.6,0-1.2,0.4-1.6,0.9c-0.4,0.5-0.6,1.2-0.7,2c0.3,3.5,0.4,5.3,0.7,8.8c0.2,0.4,0.5,0.6,0.9,0.6c0.2,0,0.4-0.1,0.6-0.3
			c0.2,0.1,0.3,0.3,0.3,0.7c0,0.3-0.1,0.6-0.4,0.8c-0.3,0.3-0.6,0.4-1.1,0.4s-0.9-0.1-1.3-0.3c-0.4,0.3-0.8,0.5-1.3,0.5
			C92.3,36.3,91.8,36.2,91.3,35.9z M91.4,32.4c0.4-0.3,0.6-0.9,0.6-1.8c0-0.7-0.1-1.3-0.1-1.8c-0.1-0.7-0.1-1.1-0.2-1.8
			c-0.1-1.4-0.2-2.2-0.3-2.6c-0.2-0.7-0.5-1.1-0.8-1.3c0,0.4,0,0.5,0.1,0.9c0.1,1.6,0.2,2.5,0.1,2.8c0,0.3-0.1,0.5-0.3,0.6
			c-0.1,0.2-0.4,0.3-0.7,0.4c0.6,0.1,0.9,0.3,1,0.6c0.2,0.4,0.3,1.4,0.4,3C91.4,31.8,91.4,32,91.4,32.4z M99.7,22.4
			c0.3,0.7,0.6,2,0.7,3.9c0.2,2.1,0.2,3.2,0.4,5.3c0.5-0.2,0.7-0.8,0.6-1.9c0-1-0.1-2-0.1-2.8c-0.1-0.8-0.1-1.5-0.2-2
			c-0.1-0.5-0.2-1-0.3-1.3C100.6,23,100.2,22.6,99.7,22.4z M109.3,21.8c0.3,0.7,0.5,2,0.7,3.9c0.1,2.1,0.2,3.2,0.3,5.3
			c0.5-0.2,0.7-0.8,0.7-1.9c0-1,0-2-0.1-2.8c0-0.8-0.1-1.5-0.2-2c-0.1-0.5-0.2-1-0.3-1.3C110.2,22.4,109.8,22,109.3,21.8z"/>
		<path id="XMLID_38_" class="st1" d="M120,34c-0.4,0.3-0.9,0.5-1.5,0.5c-0.5,0-1-0.1-1.2-0.3c-0.3-0.2-0.4-0.5-0.4-0.7
			c0-0.3,0-0.5,0.2-0.7c0.2,0.1,0.5,0.2,0.9,0.2c0.4,0,0.7-0.3,1-0.8c-0.1-1.8-0.1-2.7-0.2-4.4c0-0.4-0.1-0.7-0.3-0.9
			c-0.3-0.3-0.8-0.6-1.5-0.9c0.7-0.3,1.1-0.6,1.2-0.8c0.3-0.3,0.4-0.7,0.4-1.1c0-0.8-0.1-1.2-0.1-2c0-0.8-0.3-1.2-0.9-1.2
			c-0.2,0-0.4,0-0.6,0s-0.5,0.1-0.7,0.3c-0.1-0.2-0.2-0.3-0.2-0.5c0-0.2,0-0.4,0.1-0.6c0.1-0.2,0.2-0.5,0.4-0.7
			c0.5-0.5,1-0.8,1.7-0.8c0.7,0,1.3,0.1,1.8,0.3c0.4-0.6,1-0.9,1.6-1c1,0,1.5,0.4,1.5,1.4c0.1,1.9,0.1,2.9,0.2,4.8
			c0,0.4,0.1,0.8,0.3,0.9c0.3,0.3,0.8,0.6,1.5,0.8c-0.7,0.4-1.1,0.6-1.3,0.8c-0.3,0.3-0.4,0.6-0.4,1.1c0.1,1.8,0.1,2.7,0.2,4.5
			c0.3,0.5,0.7,0.7,1.1,0.7c0.4,0,0.7-0.1,0.9-0.3c0.1,0.2,0.2,0.4,0.2,0.7c0,0.3-0.1,0.5-0.4,0.8c-0.3,0.2-0.7,0.4-1.2,0.4
			c-0.5,0-1-0.1-1.5-0.4c-0.4,0.3-0.8,0.5-1.4,0.5C120.9,34.4,120.4,34.3,120,34z M120.7,15.8c-0.5,0-1-0.1-1.4-0.3
			c-0.5-0.2-0.8-0.6-1.1-1c-0.3-0.4-0.6-0.7-1.1-0.9c-0.1-0.1-0.3-0.1-0.5-0.2c0.2-0.1,0.3-0.2,0.5-0.3c0.5-0.3,0.8-0.7,1-1.1
			c0.2-0.4,0.5-0.7,1-1c0.4-0.2,0.9-0.4,1.5-0.4c1.1,0,1.9,0.4,2.4,1.2c0.4,0.6,0.9,1,1.6,1.2c-0.1,0.1-0.3,0.2-0.4,0.2
			c-0.1,0.1-0.3,0.1-0.4,0.2c-0.3,0.2-0.5,0.5-0.7,0.8c-0.2,0.4-0.5,0.7-0.9,1C121.6,15.6,121.1,15.7,120.7,15.8z M119.8,14.1
			c-0.1-0.1-0.1-0.2-0.2-0.3c0-0.1-0.1-0.4-0.1-0.7c0-0.3,0.2-0.8,0.5-1.3c-0.4,0-0.6,0.1-0.8,0.2c-0.1,0.1-0.2,0.2-0.3,0.3
			c-0.1,0.1-0.1,0.2-0.2,0.3c-0.1,0.1-0.1,0.2-0.2,0.3c-0.2,0.3-0.3,0.4-0.4,0.5c0.2,0.1,0.3,0.2,0.4,0.4s0.3,0.4,0.5,0.5
			c0.3,0.3,0.6,0.4,1.1,0.4c-0.1-0.1-0.1-0.2-0.2-0.3C119.9,14.3,119.9,14.2,119.8,14.1z M120.9,27.4c0-0.3,0-0.6,0-0.8
			c0-0.2,0-0.4,0-0.5c0-0.2,0-0.2,0-0.4c0-0.1,0-0.3,0-0.5c0-0.2,0-0.5,0-0.7c0-0.3,0-0.5-0.1-0.8c-0.1-0.6-0.1-1.1-0.2-1.3
			c-0.1-0.5-0.4-0.9-0.7-1.1c0,0.4,0,0.5,0,0.9c0.1,1.6,0.1,2.5,0,2.8c-0.1,0.3-0.2,0.5-0.3,0.6c-0.2,0.1-0.4,0.3-0.7,0.4
			c0.6,0.2,0.9,0.4,1,0.7c0.1,0.4,0.2,1.4,0.3,3c0,0.4,0,0.5,0,0.9c0.4-0.3,0.6-0.9,0.7-1.7C120.9,28.2,120.9,27.7,120.9,27.4z"/>
		<path id="XMLID_35_" class="st1" d="M130.1,33.7c-0.4,0.3-0.9,0.5-1.5,0.5c-0.5,0-1-0.1-1.2-0.3c-0.3-0.2-0.4-0.5-0.4-0.7
			c0-0.3,0-0.5,0.2-0.7c0.2,0.2,0.5,0.2,0.8,0.2c0.5,0,0.9-0.3,1.1-1c0-1.7-0.1-2.6-0.1-4.3c0-0.4-0.1-0.7-0.3-0.9
			c-0.3-0.3-0.8-0.6-1.5-0.9c0.7-0.3,1.1-0.6,1.3-0.8c0.3-0.3,0.4-0.7,0.4-1.1c-0.1-3.1-0.1-4.7-0.2-7.9c0-1.1-0.5-1.6-1.4-1.5
			c-0.3,0-0.6,0.1-0.8,0.3c-0.1-0.2-0.2-0.4-0.2-0.5c0-0.2,0-0.4,0.1-0.6c0.1-0.2,0.2-0.3,0.5-0.5c0.4-0.3,1-0.5,1.7-0.5
			c0.7,0,1.2,0,1.6,0.1c0.5-0.7,1.1-1,1.8-1c1,0,1.5,0.5,1.5,1.5c0.1,4.2,0.1,6.4,0.2,10.6c0,0.4,0.1,0.8,0.3,1
			c0.3,0.3,0.8,0.6,1.5,0.9c-0.7,0.4-1.1,0.6-1.3,0.8c-0.3,0.3-0.4,0.6-0.4,1.1c0,1.7,0,2.6,0.1,4.3c0.2,0.6,0.6,0.9,1.2,0.9
			c0.3,0,0.6-0.1,0.8-0.2c0.1,0.2,0.2,0.4,0.2,0.7c0,0.3-0.1,0.5-0.4,0.8c-0.3,0.2-0.7,0.4-1.2,0.4c-0.5,0-1-0.1-1.5-0.4
			c-0.4,0.3-0.8,0.5-1.4,0.5C131.1,34.1,130.6,34,130.1,33.7z M130.5,30.2c0.4-0.3,0.7-0.9,0.7-1.8c0-0.4,0-0.8,0-1.3
			c0-0.5,0-0.8,0-1.1c0-0.2,0-0.4,0-0.5c0-0.5,0-0.8,0-1.3c0-0.3,0-0.7,0-1.2c0-0.5,0-0.8,0-1.4c-0.1-2.5-0.2-3.8-0.2-4.1
			c-0.1-0.6-0.4-1-0.7-1.2c0,1.9,0.1,2.8,0.1,4.7c0,1.9,0.1,3,0,3.2c0,0.2-0.1,0.4-0.1,0.5c-0.1,0.3-0.4,0.5-1,0.7
			c0.6,0.2,0.9,0.4,1,0.7c0.1,0.4,0.2,1.4,0.2,3C130.4,29.6,130.4,29.8,130.5,30.2z"/>
		<path id="XMLID_32_" class="st1" d="M154.5,19.4c-0.2-0.1-0.5-0.2-1-0.2c-0.9,0-1.6,0.6-2.1,1.8c-0.2,0.5-0.3,0.7-0.5,1.2
			c-0.3,0.9-0.5,1.5-0.5,1.8c0,0.3,0,0.6,0.2,0.8c0.1,0.2,0.4,0.4,0.8,0.6c-1,0.3-1.7,0.7-2.1,1.4c-0.1,0.2-0.2,0.4-0.3,0.6
			c-1,2.5-1.4,3.8-2.4,6.3c-0.9,2.6-1.8,4.3-2.5,5.3c-0.7,0.8-1.6,1.3-2.6,1.3c-0.8,0-1.6-0.3-2.3-0.8c-0.8-0.6-1.2-1.3-1.3-2
			c0-0.5,0.1-0.9,0.4-1.1c0.3-0.3,0.5-0.4,0.7-0.4c0.2,0,0.4,0,0.5,0c0.1,0,0.2,0,0.3,0c0.2,0.1,0.3,0.2,0.5,0.5
			c-0.2,0.4-0.1,0.8,0.4,1.2c0.4,0.4,0.8,0.6,1.2,0.6c0.4,0,0.7-0.1,0.9-0.2c0.2-0.1,0.5-0.4,0.7-0.6c0.4-0.6,0.6-1.5,0.6-2.7
			c0-0.6-0.2-1.3-0.5-2.1c-0.1-0.3-0.2-0.5-0.3-0.8c-0.8-1.8-1.2-2.7-2-4.4c-0.2-0.5-0.6-0.9-1-1.3c-0.4-0.4-0.9-0.6-1.5-0.7
			c0.7-0.3,1-0.8,1-1.3c0-0.4-0.2-0.9-0.5-1.7c-0.3-0.8-0.5-1.2-0.9-2c-0.3-0.5-0.5-0.9-0.6-1c-0.3-0.2-0.6-0.3-1-0.3
			c-0.4,0-0.7,0.1-0.9,0.3c-0.1-0.1-0.2-0.3-0.2-0.5c0-0.2,0-0.4,0.1-0.5c0.1-0.1,0.1-0.3,0.3-0.4c0.3-0.3,0.7-0.4,1.2-0.4
			c0.5,0,1.1,0.2,1.5,0.5c0.4-0.3,0.9-0.5,1.4-0.5c0.6,0,1.1,0.1,1.5,0.4c0.4-0.3,0.9-0.5,1.5-0.5c0.5,0,1,0.1,1.3,0.4
			c0.3,0.2,0.5,0.5,0.5,0.7c0,0.4-0.1,0.6-0.2,0.7c-0.2-0.2-0.5-0.2-0.7-0.2s-0.5,0.1-0.6,0.2c-0.2,0.1-0.2,0.4-0.2,0.7
			c1.3,3.5,2,5.2,3.3,8.7c1.2-3.6,1.9-5.3,3.2-8.9c-0.1-0.5-0.5-0.7-1-0.7c-0.4,0-0.7,0.1-1.1,0.3c-0.1-0.2-0.1-0.4-0.1-0.7
			c0-0.3,0.1-0.5,0.4-0.8c0.3-0.2,0.6-0.3,1.1-0.3c0.5,0,0.8,0.2,1.2,0.5c0.3-0.3,0.7-0.4,1.2-0.4c0.4,0,0.8,0.1,1.2,0.4
			c0.3-0.3,0.7-0.4,1.1-0.4s0.7,0.1,0.9,0.3c0.2,0.2,0.3,0.5,0.3,0.7C154.7,19,154.6,19.2,154.5,19.4z M140.6,20.7
			c-0.2,0.1-0.3,0.3-0.3,0.5c0,0.2,0,0.4,0,0.5c0,0.1,0,0.3,0.1,0.4c0.1,0.3,0.3,0.7,0.5,1.3c0.3,0.6,0.4,0.9,0.4,1.1
			c0,0.1,0,0.3-0.1,0.5s-0.2,0.3-0.4,0.3c0.6,0.1,1,0.3,1.1,0.6c0.1,0.1,0.2,0.3,0.3,0.6c0.4,0.8,0.6,1.3,1,2.1
			c0.2,0.4,0.4,0.8,0.6,1.3c0.4-0.5,0.2-1.5-0.5-3.2C142.3,24.4,141.7,23.1,140.6,20.7z"/>
		<path id="XMLID_29_" class="st1" d="M155.5,33.7c-0.4,0.2-0.8,0.3-1.2,0.3c-0.4,0-0.7-0.1-1-0.4c-0.2-0.3-0.4-0.6-0.4-1
			c0-0.2,0.1-0.4,0.2-0.4c0.2,0.2,0.6,0.2,1,0.2c0.4,0,0.8-0.1,1.2-0.2c2.3-3.3,3.5-5,5.8-8.2c-2.3-3.9-3.4-5.8-5.8-9.7
			c-0.5-0.3-0.9-0.4-1.4-0.4c-0.4,0-0.8,0.1-1,0.2c-0.1-0.1-0.2-0.2-0.2-0.4c0-0.2,0-0.4,0.1-0.6c0.1-0.2,0.2-0.3,0.3-0.4
			c0.3-0.3,0.8-0.4,1.4-0.4c0.6,0,1.1,0.2,1.6,0.5c0.5-0.3,1.1-0.5,1.7-0.5c0.7,0,1.2,0.2,1.6,0.5c0.5-0.3,1-0.5,1.5-0.4
			c0.4,0,0.8,0,1.1,0.1c0.3,0.1,0.5,0.2,0.7,0.3c0.4,0.3,0.7,0.6,0.7,1c0,0.3-0.1,0.4-0.2,0.5c-0.3-0.2-0.5-0.3-0.8-0.3
			c-0.6,0-1,0.1-1.3,0.2c1.5,2.6,2.3,3.8,3.8,6.4c1.8-2.5,2.7-3.7,4.5-6.2c-0.4-0.2-0.8-0.3-1.3-0.4c-0.5,0-0.9,0-1.2,0.2
			c-0.1-0.1-0.1-0.4-0.1-0.7c0-0.3,0.1-0.6,0.4-0.8c0.3-0.2,0.6-0.3,1.1-0.3c0.5,0,0.9,0.2,1.2,0.4c0.3-0.2,0.7-0.3,1.1-0.3
			c0.4,0,0.8,0.1,1.1,0.3c0.4-0.2,0.9-0.3,1.3-0.3s0.8,0.2,1,0.4c0.2,0.3,0.4,0.6,0.3,1c0,0.2-0.1,0.4-0.2,0.4
			c-0.2-0.2-0.6-0.3-1-0.3c-0.4,0-0.9,0.1-1.3,0.3c-2.4,3.2-3.6,4.8-5.9,8c2.3,4,3.4,6,5.6,10c0.4,0.2,0.8,0.4,1.2,0.4
			c0.4,0,0.8,0,1-0.2c0.1,0.1,0.1,0.2,0.1,0.4c0,0.2,0,0.4-0.1,0.6c-0.1,0.2-0.2,0.3-0.3,0.4c-0.3,0.3-0.8,0.4-1.3,0.4
			c-0.6,0-1.1-0.2-1.5-0.5c-0.5,0.3-1.1,0.4-1.7,0.4c-0.6,0-1.1-0.2-1.6-0.5c-0.5,0.3-1,0.4-1.4,0.4c-0.4,0-0.8-0.1-1-0.1
			s-0.5-0.2-0.7-0.3c-0.4-0.3-0.6-0.6-0.6-1c0-0.3,0.1-0.4,0.2-0.5c0.3,0.2,0.5,0.3,0.8,0.3c0.6,0,1-0.1,1.3-0.2
			c-1.5-2.6-2.2-3.9-3.7-6.5c-1.8,2.5-2.6,3.8-4.4,6.3c0.3,0.2,0.8,0.3,1.3,0.3c0.5,0,0.9-0.1,1.2-0.2c0.1,0.1,0.1,0.4,0.1,0.7
			s-0.1,0.6-0.4,0.8c-0.3,0.2-0.6,0.3-1.1,0.3s-0.9-0.1-1.2-0.4c-0.3,0.2-0.7,0.3-1.1,0.3C156.2,34,155.8,33.9,155.5,33.7z
			 M166.4,30.3c0-0.1,0.1-0.2,0.1-0.4c0-0.2-0.1-0.7-0.3-1.4c-0.2-0.7-0.6-1.6-1.2-2.7c-2.3-3.8-3.4-5.7-5.8-9.4
			c0,0.1-0.1,0.2-0.1,0.3s0,0.3,0,0.5c0,0.2,0.1,0.4,0.1,0.7c0.2,0.6,0.5,1.3,1,2.1C162.7,24.1,164,26.2,166.4,30.3z"/>
		<path id="XMLID_24_" class="st1" d="M177,34.3c-0.4,0.3-0.9,0.4-1.5,0.4c-0.6,0-0.9-0.2-1.2-0.4c-0.2-0.3-0.4-0.5-0.3-0.7
			c0-0.3,0.1-0.5,0.2-0.7c0.2,0.2,0.5,0.3,0.8,0.3c0.6,0,1-0.2,1.2-0.8c0.1-1.7,0.1-2.6,0.2-4.3c0-0.4-0.1-0.7-0.2-0.9
			c-0.2-0.3-0.7-0.6-1.4-1c0.7-0.3,1.1-0.5,1.3-0.7c0.3-0.3,0.5-0.7,0.5-1.1c0-0.8,0.1-1.2,0.1-2c0-0.8-0.2-1.2-0.8-1.3
			c-0.2,0-0.4,0-0.6-0.1c-0.2,0-0.5,0.1-0.7,0.2c-0.1-0.2-0.2-0.4-0.2-0.6c0-0.2,0.1-0.4,0.2-0.6c0.1-0.2,0.3-0.4,0.5-0.7
			c0.5-0.5,1.1-0.7,1.8-0.7c0.7,0,1.2,0.2,1.7,0.4c0.6-0.5,1.1-0.8,1.7-0.8c1,0.1,1.5,0.6,1.4,1.6c0,0.5,0,0.7-0.1,1.2
			c0.9-1.2,2-2,3.5-2.3c0.5-0.1,1-0.1,1.5-0.1c1.1,0.1,2.1,0.4,2.8,1c0.7,0.6,1.2,1.4,1.5,2.4c0.8-1.4,2.1-2.2,3.7-2.6
			c0.5-0.1,1.1-0.1,1.8-0.1c0.7,0.1,1.3,0.2,1.9,0.5c0.6,0.3,1,0.7,1.4,1.2c0.8,1,1.1,2.4,0.9,4c0,0.4-0.1,0.6-0.1,0.9
			c0,0.4,0,0.8,0.2,1c0.3,0.3,0.7,0.6,1.4,1c-0.8,0.3-1.2,0.5-1.4,0.7c-0.3,0.3-0.5,0.6-0.5,1c-0.1,1.7-0.2,2.6-0.4,4.3
			c0.1,0.6,0.5,0.9,1.1,1c0.2,0,0.4,0,0.7-0.2c0,0.1,0.1,0.2,0.2,0.2c0.1,0.1,0.1,0.2,0.1,0.5c0,0.2-0.2,0.5-0.4,0.7
			c-0.3,0.2-0.7,0.3-1.2,0.3s-1-0.2-1.5-0.6c-0.4,0.3-0.9,0.4-1.4,0.3c-0.5,0-1-0.2-1.3-0.5c-0.4,0.2-0.8,0.4-1.3,0.3
			c-0.5,0-0.8-0.2-1.1-0.4c-0.3-0.3-0.4-0.6-0.3-1c0-0.2,0.1-0.4,0.2-0.5c0.2,0.2,0.4,0.3,0.6,0.3c0.4,0,0.7-0.2,0.9-0.6
			c0.3-3.3,0.4-5,0.6-8.3c0.2-2.2-0.6-3.3-2.2-3.4c-0.5,0-0.9,0.2-1.4,0.7c-0.5,0.5-0.8,1.1-1,1.8c-0.3,3.5-0.4,5.3-0.7,8.8
			c0.1,0.5,0.4,0.7,0.8,0.7c0.2,0,0.4-0.1,0.7-0.2c0.1,0.1,0.2,0.4,0.2,0.7c0,0.3-0.2,0.6-0.5,0.8c-0.3,0.2-0.7,0.3-1.1,0.3
			c-0.5,0-0.9-0.2-1.2-0.5c-0.4,0.2-0.9,0.4-1.4,0.3c-0.5,0-1-0.2-1.3-0.5c-0.4,0.3-0.8,0.4-1.3,0.3c-0.5,0-0.8-0.2-1.1-0.4
			c-0.3-0.2-0.4-0.6-0.3-1c0-0.2,0.1-0.4,0.2-0.5c0.2,0.2,0.4,0.3,0.6,0.3c0.4,0,0.7-0.2,0.9-0.6c0.2-3.3,0.3-5,0.5-8.3
			c0.1-1.7-0.3-2.8-1.1-3.2c-0.3-0.1-0.6-0.2-0.9-0.2c-0.6,0-1.2,0.2-1.7,0.7c-0.5,0.5-0.8,1.1-0.9,1.8c-0.2,3.5-0.3,5.3-0.5,8.8
			c0.2,0.5,0.4,0.7,0.9,0.7c0.2,0,0.4-0.1,0.7-0.2c0.2,0.1,0.2,0.4,0.2,0.7c0,0.3-0.2,0.6-0.5,0.8c-0.3,0.2-0.7,0.3-1.1,0.3
			c-0.5,0-0.9-0.2-1.2-0.5c-0.4,0.2-0.8,0.4-1.4,0.3C177.9,34.8,177.5,34.6,177,34.3z M177.6,30.8c0.5-0.3,0.7-0.8,0.8-1.7
			c0.1-0.7,0.1-1.3,0.1-1.8c0-0.7,0.1-1.1,0.1-1.8c0.1-1.4,0.1-2.3,0-2.6c-0.1-0.7-0.3-1.1-0.6-1.4c0,0.4,0,0.5,0,0.9
			c-0.1,1.6-0.2,2.5-0.2,2.8c-0.1,0.3-0.2,0.5-0.4,0.6c-0.2,0.1-0.4,0.2-0.7,0.3c0.6,0.2,0.9,0.5,0.9,0.7c0.1,0.4,0.1,1.5,0,3
			C177.7,30.2,177.6,30.4,177.6,30.8z M187.2,22c0.2,0.7,0.3,2,0.2,4c-0.1,2.1-0.2,3.2-0.3,5.3c0.5-0.1,0.8-0.7,0.9-1.8
			c0.1-1,0.2-1.9,0.3-2.7c0.1-0.8,0.1-1.5,0.1-2c0-0.5-0.1-1-0.1-1.4C188,22.8,187.7,22.3,187.2,22z M196.8,22.7
			c0.2,0.7,0.3,2,0.1,4c-0.2,2.1-0.3,3.2-0.4,5.3c0.5-0.1,0.8-0.7,0.9-1.8c0.1-1,0.2-1.9,0.3-2.7c0.1-0.8,0.1-1.5,0.1-2
			c0-0.5,0-1-0.1-1.4C197.5,23.5,197.3,23,196.8,22.7z"/>
		<path id="XMLID_19_" class="st1" d="M213,35.9c-1,1-2.3,1.4-4,1.3c-2.1-0.2-3.6-1-4.5-2.3c-0.4-0.6-0.7-1.2-0.8-1.8
			c-0.1-0.4-0.2-0.7-0.4-0.9c-0.2-0.2-0.5-0.4-0.8-0.6c0.7-0.2,1.2-0.8,1.6-1.6c0.4-0.9,1-1.5,1.7-1.8c0.8-0.3,1.7-0.5,2.7-0.4
			c1,0.1,1.7,0.1,2.1,0.1s0.9,0,1.2-0.1c0.7-0.1,1.2-0.3,1.6-0.7c0.1-0.8,0.1-1.2,0.2-2.1c0.1-0.9,0-1.6-0.4-2.1
			c-0.3-0.5-0.9-0.7-1.7-0.8c-0.8-0.1-1.4,0-1.8,0.2c-0.4,0.2-0.6,0.6-0.7,1.1c-0.1,0.7,0.3,1.1,1,1.2c-0.2,0.7-0.7,1-1.3,1
			c-0.2,0-0.4-0.1-0.5-0.2c0,0,0,0,0,0c0,0.2,0.1,0.4,0.3,0.5c-0.3,0.3-0.7,0.5-1.3,0.4c-0.6-0.1-1-0.4-1.2-1c-0.1,0-0.3,0-0.5,0
			c-0.2,0-0.4-0.1-0.6-0.2c-0.2-0.1-0.4-0.3-0.5-0.5c0.5-0.2,0.8-0.6,1-1.2c0.2-0.7,0.8-1.4,2-2c1.4-0.8,3.1-1,5.1-0.8
			c3.3,0.3,5.2,1.6,5.7,3.6c0.2,0.7,0.2,1.5,0.1,2.4c-0.1,0.4-0.1,0.7-0.1,1.1c-0.1,0.5,0,0.8,0.2,1.1c0.2,0.3,0.6,0.6,1.1,0.8
			c-0.6,0.2-1,0.4-1.2,0.6c-0.3,0.3-0.5,0.6-0.5,1.1c-0.2,1.7-0.3,2.5-0.5,4.1c0.2,0.7,0.5,1.1,1,1.2c0.3,0,0.6,0,0.8-0.1
			c0.1,0.2,0.1,0.4,0.1,0.7c0,0.3-0.2,0.5-0.5,0.7c-0.3,0.2-0.7,0.3-1.2,0.2c-0.5-0.1-1-0.3-1.4-0.6c-0.4,0.2-0.8,0.4-1.1,0.3
			c-0.3,0-0.6-0.1-0.8-0.2c-0.2-0.1-0.4-0.2-0.6-0.4C213.3,36.9,213,36.5,213,35.9z M206.6,35.1c0.1-0.1,0.2-0.1,0.2-0.2
			c0-0.1,0-0.3-0.1-0.6c-0.4-0.9-0.6-1.6-0.5-2.2c0.1-0.5,0.1-0.9,0.2-1.2c0.1-0.2,0.1-0.4,0.2-0.6c0.1-0.2,0.2-0.3,0.3-0.4
			c0.1-0.1,0.2-0.2,0.3-0.3c0.1-0.2,0.2-0.3,0.2-0.4c0-0.1,0-0.1-0.1-0.2c-0.4,0.1-0.7,0.3-0.9,0.5c-0.4,0.4-0.7,0.9-0.9,1.6
			c-0.1,0.2-0.4,0.4-1.1,0.6c0.6,0.3,0.9,0.6,0.9,0.8C205.5,33.6,205.9,34.4,206.6,35.1z M209,32.1c0,0.4,0,0.8,0,1.1
			c0,0.4,0.1,0.7,0.3,1c0.3,0.6,0.8,1,1.5,1c0.5,0.1,1-0.1,1.3-0.5c0.4-0.4,0.6-0.9,0.6-1.5c0.2-1.8,0.3-2.7,0.5-4.5
			c-0.6,0.3-1.5,0.4-2.4,0.5C209.8,29.3,209.2,30.3,209,32.1z M214.1,33.7c0.6-0.2,1-1.2,1.2-3c0-0.4,0.1-0.8,0.1-1.3
			c0.1-0.5,0.1-0.9,0.1-1.3c0-0.4,0.1-0.7,0.1-1c0.1-1.2,0.1-1.9-0.1-2.1c-0.2-0.2-0.3-0.4-0.5-0.5C214.7,28.1,214.5,30,214.1,33.7z
			"/>
		<path id="XMLID_15_" class="st1" d="M223.9,38.2c-0.7,0.5-1.4,0.7-1.9,0.7c-0.3,0-0.5-0.2-0.6-0.4c0.2-0.2,0.4-0.4,0.4-0.6
			c0-0.2,0-0.4,0-0.5c-0.1-0.1-0.1-0.2-0.1-0.3c0.1,0.2,0.1,0.3,0.2,0.4c-0.2-0.1-0.4-0.3-0.5-0.6c-0.1-0.3-0.1-0.6-0.1-0.9
			c0-0.3,0.3-0.7,0.7-1.1c-0.2-0.3-0.2-0.6-0.2-0.9c0-0.3,0.1-0.6,0.3-0.8c0.1-0.2,0.3-0.4,0.5-0.5c0.4-0.3,0.8-0.4,1.3-0.4
			c0.3,0,0.5,0.2,0.6,0.4c-0.3,0.2-0.5,0.6-0.5,1.2c-0.1,0.6,0,1.1,0.1,1.5c0.2,0.4,0.4,0.8,0.7,1.1c0.7,0.7,1.5,1.1,2.6,1.3
			c1.2,0.2,2.1-0.2,2.6-1c0.2-0.2,0.3-0.5,0.3-0.8c0-0.3,0-0.5-0.1-0.7c-0.1-0.2-0.2-0.4-0.4-0.7c-0.3-0.4-0.8-0.8-1.4-1.3
			c-0.6-0.5-1.3-0.9-2.2-1c-0.6-0.1-1-0.1-1.2,0c0.2-0.3,0.3-0.5,0.3-0.8c0-0.3-0.1-0.6-0.5-1c-0.3-0.4-0.6-0.7-0.9-1.1
			c-0.3-0.4-0.5-0.7-0.6-1.1c-0.3-0.7-0.4-1.4-0.3-2.1c0.1-0.7,0.3-1.3,0.7-1.8c0.4-0.5,0.8-0.9,1.4-1.2c1.2-0.7,2.8-0.9,4.5-0.7
			c0.9,0.1,1.4,0.2,1.8,0.3c0.3,0.1,0.6,0.2,0.7,0.3c0.2,0.1,0.6,0.2,0.9,0.3c0.4,0.1,0.6,0,0.8-0.1c0.2-0.1,0.3-0.3,0.3-0.4
			c0-0.1,0-0.2,0-0.3c0.1,0,0.1,0,0.3,0c0.1,0,0.2,0.1,0.4,0.2c0.1,0.1,0.3,0.2,0.4,0.3c0.2,0.3,0.3,0.6,0.2,0.8s-0.1,0.5-0.3,0.6
			c0.2,0.3,0.3,0.6,0.3,1.1s-0.3,0.8-0.7,1c0.1,0.2,0.1,0.4,0,0.6s-0.2,0.4-0.5,0.6c-0.3,0.2-0.6,0.3-0.8,0.2
			c-0.4-0.1-0.7-0.1-0.8-0.3c0.2-0.3,0.3-0.6,0.3-0.9c0-0.3,0-0.7-0.2-1s-0.4-0.6-0.6-0.9c-0.5-0.4-1.1-0.7-1.9-0.8
			c-1-0.1-1.7,0.1-2.1,0.6c-0.1,0.2-0.2,0.4-0.2,0.6c0,0.2,0,0.4,0,0.6c0,0.2,0.1,0.4,0.2,0.6c0.2,0.4,0.6,0.8,1,1.2
			c0.6,0.5,1,0.8,1.3,0.8c0.6,0.1,1,0,1.5-0.2c-0.2,0.4-0.3,0.7-0.3,0.9c0,0.3,0.1,0.6,0.5,1c1.1,1,1.8,1.9,2.2,2.6
			c0.3,0.7,0.4,1.5,0.3,2.3c-0.1,0.8-0.4,1.5-0.8,2c-0.4,0.5-1,0.9-1.7,1.3c-1.4,0.7-3,0.9-4.9,0.6C226,39.1,224.9,38.8,223.9,38.2z
			 M225,25.5c-0.3,0.1-0.5,0.4-0.5,1c-0.1,0.6,0.1,1.2,0.4,1.7c0.3,0.6,0.9,1.3,1.6,2c0.2,0.2,0.3,0.3,0.2,0.5
			c0,0.2-0.1,0.4-0.1,0.5c0.1,0,0.3,0,0.6,0c0.7,0,1.5,0.5,2.4,1.3c1.5,1.2,2.2,2.3,2,3.4c-0.1,0.4-0.2,0.7-0.3,0.9
			c0.3,0,0.6-0.3,0.9-0.7c0.1-0.1,0.1-0.3,0.1-0.4c0.1-0.7-0.2-1.6-0.9-2.4c-0.7-0.9-1.8-1.8-3.3-2.7
			C225.8,28.9,224.7,27.2,225,25.5z"/>
	</g>
</g>
</svg>
